<svg width="88" height="50" viewBox="0 0 88 50" fill="none" xmlns="http://www.w3.org/2000/svg">
<path d="M66.9388 17.7357C66.4303 17.7357 65.9278 17.763 65.4324 17.8119L61.5024 1.36813C61.3104 0.565589 60.5945 0 59.7732 0H53.6565C52.6752 0 51.8787 0.800159 51.8787 1.78607C51.8787 2.77198 52.6752 3.57214 53.6565 3.57214H58.3723L59.7021 9.13753H33.1909L31.8504 4.29371H36.7879C37.7692 4.29371 38.5656 3.49355 38.5656 2.50764C38.5656 1.52173 37.7692 0.721572 36.7879 0.721572H29.5109C28.955 0.721572 28.4324 0.982338 28.0958 1.42766C27.7604 1.8718 27.6502 2.4481 27.7983 2.98631L29.9435 10.7402L22.753 19.8837C20.4976 18.5299 17.8725 17.7369 15.0612 17.7369C6.75551 17.7357 0 24.5251 0 32.8684C0 41.2117 6.75551 47.9988 15.06 47.9988C22.8727 47.9988 29.313 41.9893 30.0478 34.3306H37.8202H37.8237C37.9802 34.3306 38.139 34.3104 38.2966 34.2663C38.3405 34.2544 38.3796 34.233 38.4211 34.2175C38.4519 34.2068 38.4803 34.1949 38.5111 34.183C38.6936 34.1056 38.8572 34.002 38.9982 33.8758C39.0077 33.8674 39.0208 33.8639 39.0302 33.8555L60.7676 13.5967L61.9646 18.6049C56.1015 20.6767 51.8799 26.2802 51.8799 32.8696C51.8799 41.2129 58.6354 48 66.94 48C75.2445 48 82 41.2129 82 32.8696C82 24.5263 75.2433 17.7357 66.9388 17.7357ZM31.1227 15.0018L35.4818 30.7573H29.9577C29.4836 27.3697 27.9014 24.3382 25.5749 22.0544L31.1227 15.0018ZM23.3551 24.8776C24.8769 26.4719 25.9483 28.4985 26.3654 30.7573H18.7317L23.3551 24.8776ZM15.06 44.4267C8.71579 44.4267 3.55553 39.2411 3.55553 32.8684C3.55553 26.4957 8.71579 21.309 15.06 21.309C17.0405 21.309 18.9048 21.815 20.5344 22.7033L13.6651 31.4372C13.2432 31.9742 13.1626 32.7065 13.4601 33.3233C13.7563 33.9389 14.3774 34.3306 15.06 34.3306H26.4638C25.7444 40.0139 20.9101 44.4267 15.06 44.4267ZM38.7517 29.2391L34.1793 12.7109H56.4879L38.7517 29.2391ZM66.9388 44.4267C60.5945 44.4267 55.4343 39.2423 55.4343 32.8684C55.4343 27.9627 58.4968 23.7714 62.7978 22.0961L65.2096 32.1897C65.4063 33.0089 66.134 33.5578 66.9376 33.5578C67.0739 33.5578 67.2137 33.5412 67.3548 33.509C68.3088 33.2792 68.8979 32.3136 68.6679 31.3538L66.2751 21.3423C66.4955 21.3292 66.7148 21.309 66.9388 21.309C73.283 21.309 78.4433 26.4945 78.4433 32.8684C78.4433 39.2423 73.283 44.4267 66.9388 44.4267Z" fill="#265970"/>
</svg>
