<svg width="88" height="50" viewBox="0 0 88 50" fill="none" xmlns="http://www.w3.org/2000/svg">
<g clip-path="url(#clip0_274_13)">
<path d="M66.9388 16.7357C66.4303 16.7357 65.9278 16.763 65.4324 16.8119L61.5024 0.368129C61.3104 -0.434411 60.5945 -1 59.7732 -1H53.6565C52.6752 -1 51.8787 -0.199841 51.8787 0.786069C51.8787 1.77198 52.6752 2.57214 53.6565 2.57214H58.3723L59.7021 8.13753H33.1909L31.8504 3.29371H36.7879C37.7692 3.29371 38.5656 2.49355 38.5656 1.50764C38.5656 0.521732 37.7692 -0.278428 36.7879 -0.278428H29.5109C28.955 -0.278428 28.4324 -0.0176618 28.0958 0.427665C27.7604 0.8718 27.6502 1.4481 27.7983 1.98631L29.9435 9.74023L22.753 18.8837C20.4976 17.5299 17.8725 16.7369 15.0612 16.7369C6.75551 16.7357 0 23.5251 0 31.8684C0 40.2117 6.75551 46.9988 15.06 46.9988C22.8727 46.9988 29.313 40.9893 30.0478 33.3306H37.8202H37.8237C37.9802 33.3306 38.139 33.3104 38.2966 33.2663C38.3405 33.2544 38.3796 33.233 38.4211 33.2175C38.4519 33.2068 38.4803 33.1949 38.5111 33.183C38.6936 33.1056 38.8572 33.002 38.9982 32.8758C39.0077 32.8674 39.0208 32.8639 39.0302 32.8555L60.7676 12.5967L61.9646 17.6049C56.1015 19.6767 51.8799 25.2802 51.8799 31.8696C51.8799 40.2129 58.6354 47 66.94 47C75.2445 47 82 40.2129 82 31.8696C82 23.5263 75.2433 16.7357 66.9388 16.7357ZM31.1227 14.0018L35.4818 29.7573H29.9577C29.4836 26.3697 27.9014 23.3382 25.5749 21.0544L31.1227 14.0018ZM23.3551 23.8776C24.8769 25.4719 25.9483 27.4985 26.3654 29.7573H18.7317L23.3551 23.8776ZM15.06 43.4267C8.71579 43.4267 3.55553 38.2411 3.55553 31.8684C3.55553 25.4957 8.71579 20.309 15.06 20.309C17.0405 20.309 18.9048 20.815 20.5344 21.7033L13.6651 30.4372C13.2432 30.9742 13.1626 31.7065 13.4601 32.3233C13.7563 32.9389 14.3774 33.3306 15.06 33.3306H26.4638C25.7444 39.0139 20.9101 43.4267 15.06 43.4267ZM38.7517 28.2391L34.1793 11.7109H56.4879L38.7517 28.2391ZM66.9388 43.4267C60.5945 43.4267 55.4343 38.2423 55.4343 31.8684C55.4343 26.9627 58.4968 22.7714 62.7978 21.0961L65.2096 31.1897C65.4063 32.0089 66.134 32.5578 66.9376 32.5578C67.0739 32.5578 67.2137 32.5412 67.3548 32.509C68.3088 32.2792 68.8979 31.3136 68.6679 30.3538L66.2751 20.3423C66.4955 20.3292 66.7148 20.309 66.9388 20.309C73.283 20.309 78.4433 25.4945 78.4433 31.8684C78.4433 38.2423 73.283 43.4267 66.9388 43.4267Z" fill="#265970"/>
</g>
<defs>
<clipPath id="clip0_274_13">
<rect width="88" height="50" fill="white"/>
</clipPath>
</defs>
</svg>
