<svg width="88" height="50" viewBox="0 0 88 50" fill="none" xmlns="http://www.w3.org/2000/svg">
<path fill-rule="evenodd" clip-rule="evenodd" d="M22.7014 19.6091L24.4069 17.4654L27.5008 19.2568L25.5169 21.7498C27.8381 24.002 29.4167 26.9917 29.8897 30.3325H35.4012L33.2296 22.5739L37.6233 25.118L38.6637 28.8353L40.7401 26.9227L43.9453 28.7785L38.9416 33.3879C38.9369 33.392 38.9313 33.3949 38.9256 33.3979C38.92 33.4008 38.9144 33.4038 38.9097 33.4079C38.769 33.5323 38.6058 33.6345 38.4237 33.7108L38.3961 33.7215C38.3754 33.7296 38.3552 33.7375 38.3338 33.7449C38.3182 33.7506 38.303 33.7572 38.2877 33.7638C38.2624 33.7747 38.2369 33.7857 38.2096 33.793C38.0524 33.8365 37.8939 33.8564 37.7378 33.8564H29.9795C29.2464 41.4093 22.8208 47.3358 15.0258 47.3358C6.74017 47.3358 0 40.6425 0 32.4144C0 24.1864 6.74017 17.4907 15.027 17.4919C17.8319 17.4919 20.4511 18.2739 22.7014 19.6091ZM23.3021 24.5339C24.8204 26.1063 25.8893 28.1049 26.3056 30.3325H18.6892L23.3021 24.5339ZM15.0258 43.813C8.696 43.813 3.54746 38.6991 3.54746 32.4144C3.54746 26.1298 8.696 21.0147 15.0258 21.0147C17.0018 21.0147 18.8618 21.5137 20.4877 22.3897L13.6341 31.003C13.2131 31.5326 13.1327 32.2547 13.4295 32.863C13.7251 33.4701 14.3447 33.8564 15.0258 33.8564H26.4037C25.6859 39.4612 20.8626 43.813 15.0258 43.813Z" fill="#828282"/>
<path fill-rule="evenodd" clip-rule="evenodd" d="M78.3961 41.8805L87.1509 46.8709C87.9624 47.3334 88.2409 48.3586 87.7729 49.1607C87.3049 49.9628 86.2677 50.2381 85.4562 49.7755L4.14131 3.4247C3.32982 2.96214 3.05135 1.93694 3.51932 1.13484C3.9873 0.332741 5.0245 0.0574914 5.83598 0.52005L27.8879 13.09L29.8755 10.5919L27.7352 2.94506C27.5874 2.41429 27.6974 1.84595 28.032 1.40795C28.3678 0.96877 28.8893 0.711605 29.4439 0.711605H36.7043C37.6834 0.711605 38.4781 1.50071 38.4781 2.47301C38.4781 3.4453 37.6834 4.2344 36.7043 4.2344H31.7781L33.1155 9.01132H59.5665L58.2398 3.5228H53.5347C52.5556 3.5228 51.7609 2.73369 51.7609 1.7614C51.7609 0.789107 52.5556 0 53.5347 0H59.6375C60.4569 0 61.1711 0.557777 61.3627 1.34923L65.2838 17.5658C65.7781 17.5177 66.2795 17.4907 66.7868 17.4907C75.0724 17.4907 81.8138 24.1875 81.8138 32.4156C81.8138 36.0055 80.5307 39.3033 78.3961 41.8805ZM35.4659 17.4096L45.1037 22.9033L56.3596 12.5353H34.1017L35.4659 17.4096ZM48.328 24.7412L52.6992 27.2329C54.2535 23.0915 57.6147 19.8181 61.8239 18.3479L60.6296 13.4089L48.328 24.7412ZM55.83 29.0174L75.2623 40.0941C77.1267 38.0667 78.2652 35.3703 78.2652 32.4144C78.2652 26.1286 73.1166 21.0147 66.7868 21.0147C66.6214 21.0147 66.4586 21.0256 66.296 21.0365C66.2748 21.0379 66.2536 21.0394 66.2325 21.0408C66.1965 21.0431 66.1606 21.0454 66.1246 21.0475L68.512 30.9208C68.7414 31.8672 68.1537 32.8196 67.2018 33.0462C67.0611 33.0779 66.9216 33.0943 66.7856 33.0943C65.9839 33.0943 65.2578 32.553 65.0615 31.7451L62.6552 21.7909C59.4134 23.039 56.8768 25.7032 55.83 29.0174ZM30.9978 14.8627L31.0851 14.9124L31.0521 14.7946L30.9978 14.8627Z" fill="#828282"/>
<path d="M66.7879 47.337C58.8082 47.337 52.2619 41.1288 51.7894 33.3205L55.7722 35.6266C57.172 40.3532 61.5797 43.813 66.7868 43.813C67.6845 43.813 68.5584 43.7102 69.3972 43.5158L73.3812 45.8226C71.3896 46.7923 69.1517 47.337 66.7879 47.337Z" fill="#828282"/>
</svg>
