<svg width="330" height="330" viewBox="0 0 330 330" fill="none" xmlns="http://www.w3.org/2000/svg">
<rect x="133.373" y="91.1062" width="71.7386" height="92.9945" transform="rotate(-8.6636 133.373 91.1062)" fill="#377692"/>
<path d="M47.9761 133.626L57.1813 194.04L128.101 183.233L114.093 91.3L85.2 95.7025L90.0027 127.223L47.9761 133.626Z" fill="#377692"/>
<rect x="165.273" y="238.785" width="74.3956" height="71.7386" transform="rotate(-8.5694 165.273 238.785)" fill="#377692"/>
<rect x="221.373" y="80.7053" width="61.1107" height="92.9945" transform="rotate(-8.6636 221.373 80.7053)" fill="#377692"/>
<path d="M16.3516 138.875V173H10.4688V138.875H16.3516ZM30.2734 153.805V158.469H14.8516V153.805H30.2734ZM32.2188 138.875V143.562H14.8516V138.875H32.2188Z" fill="#377692"/>
<path d="M125.016 250.125V254.789H106.898V250.125H125.016ZM108.352 235.875V270H102.469V235.875H108.352ZM129.539 235.875V270H123.68V235.875H129.539Z" fill="#377692"/>
<path d="M176.805 54.3359V59H158.688V54.3359H176.805ZM160.352 24.875V59H154.469V24.875H160.352ZM174.438 39.125V43.7188H158.688V39.125H174.438ZM176.688 24.875V29.5625H158.688V24.875H176.688Z" fill="#377692"/>
<path d="M305.383 120H298.094L298.141 115.336H305.383C307.492 115.336 309.258 114.875 310.68 113.953C312.117 113.031 313.195 111.711 313.914 109.992C314.648 108.273 315.016 106.227 315.016 103.852V102C315.016 100.156 314.805 98.5234 314.383 97.1016C313.977 95.6797 313.367 94.4844 312.555 93.5156C311.758 92.5469 310.773 91.8125 309.602 91.3125C308.445 90.8125 307.109 90.5625 305.594 90.5625H297.953V85.875H305.594C307.859 85.875 309.93 86.2578 311.805 87.0234C313.68 87.7734 315.297 88.8594 316.656 90.2812C318.031 91.7031 319.086 93.4062 319.82 95.3906C320.555 97.375 320.922 99.5938 320.922 102.047V103.852C320.922 106.305 320.555 108.523 319.82 110.508C319.086 112.492 318.031 114.195 316.656 115.617C315.281 117.023 313.641 118.109 311.734 118.875C309.844 119.625 307.727 120 305.383 120ZM301.352 85.875V120H295.469V85.875H301.352Z" fill="#377692"/>
</svg>
