<svg width="330" height="330" viewBox="0 0 330 330" fill="none" xmlns="http://www.w3.org/2000/svg">
<rect x="84.7" y="145.2" width="160" height="40" fill="#377692"/>
<path d="M170.625 118.891H176.484C176.297 121.125 175.672 123.117 174.609 124.867C173.547 126.602 172.055 127.969 170.133 128.969C168.211 129.969 165.875 130.469 163.125 130.469C161.016 130.469 159.117 130.094 157.43 129.344C155.742 128.578 154.297 127.5 153.094 126.109C151.891 124.703 150.969 123.008 150.328 121.023C149.703 119.039 149.391 116.82 149.391 114.367V111.531C149.391 109.078 149.711 106.859 150.352 104.875C151.008 102.891 151.945 101.195 153.164 99.7891C154.383 98.3672 155.844 97.2812 157.547 96.5312C159.266 95.7812 161.195 95.4062 163.336 95.4062C166.055 95.4062 168.352 95.9062 170.227 96.9062C172.102 97.9062 173.555 99.2891 174.586 101.055C175.633 102.82 176.273 104.844 176.508 107.125H170.648C170.492 105.656 170.148 104.398 169.617 103.352C169.102 102.305 168.336 101.508 167.32 100.961C166.305 100.398 164.977 100.117 163.336 100.117C161.992 100.117 160.82 100.367 159.82 100.867C158.82 101.367 157.984 102.102 157.312 103.07C156.641 104.039 156.133 105.234 155.789 106.656C155.461 108.062 155.297 109.672 155.297 111.484V114.367C155.297 116.086 155.445 117.648 155.742 119.055C156.055 120.445 156.523 121.641 157.148 122.641C157.789 123.641 158.602 124.414 159.586 124.961C160.57 125.508 161.75 125.781 163.125 125.781C164.797 125.781 166.148 125.516 167.18 124.984C168.227 124.453 169.016 123.68 169.547 122.664C170.094 121.633 170.453 120.375 170.625 118.891Z" fill="#377692"/>
</svg>
