<svg width="330" height="330" viewBox="0 0 330 330" fill="none" xmlns="http://www.w3.org/2000/svg">
<rect x="247.318" y="50" width="81.0089" height="99.9136" transform="rotate(40.8248 247.318 50)" fill="#377692"/>
<path d="M66.658 102.3L17.6 202.132L140.908 260.7L158.145 226.092L135.604 215.443L166.1 151.55L66.658 102.3Z" fill="#377692"/>
<path d="M16.7578 99.4219L6.5625 129H0.398438L13.2422 94.875H17.1797L16.7578 99.4219ZM25.2891 129L15.0703 99.4219L14.625 94.875H18.5859L31.4766 129H25.2891ZM24.7969 116.344V121.008H6.23438V116.344H24.7969Z" fill="#377692"/>
<path d="M203.266 193.578H194.57L194.523 189.289H202.117C203.398 189.289 204.484 189.102 205.375 188.727C206.281 188.336 206.969 187.781 207.438 187.062C207.906 186.328 208.141 185.445 208.141 184.414C208.141 183.273 207.922 182.344 207.484 181.625C207.047 180.906 206.375 180.383 205.469 180.055C204.578 179.727 203.438 179.562 202.047 179.562H196.352V209H190.469V174.875H202.047C203.922 174.875 205.594 175.055 207.062 175.414C208.547 175.773 209.805 176.336 210.836 177.102C211.883 177.852 212.672 178.805 213.203 179.961C213.75 181.117 214.023 182.492 214.023 184.086C214.023 185.492 213.688 186.781 213.016 187.953C212.344 189.109 211.352 190.055 210.039 190.789C208.727 191.523 207.094 191.961 205.141 192.102L203.266 193.578ZM203.008 209H192.719L195.367 204.336H203.008C204.336 204.336 205.445 204.117 206.336 203.68C207.227 203.227 207.891 202.609 208.328 201.828C208.781 201.031 209.008 200.102 209.008 199.039C209.008 197.93 208.812 196.969 208.422 196.156C208.031 195.328 207.414 194.695 206.57 194.258C205.727 193.805 204.625 193.578 203.266 193.578H196.656L196.703 189.289H205.305L206.641 190.906C208.516 190.969 210.055 191.383 211.258 192.148C212.477 192.914 213.383 193.906 213.977 195.125C214.57 196.344 214.867 197.656 214.867 199.062C214.867 201.234 214.391 203.055 213.438 204.523C212.5 205.992 211.148 207.109 209.383 207.875C207.617 208.625 205.492 209 203.008 209Z" fill="#377692"/>
</svg>
