<svg width="330" height="330" viewBox="0 0 330 330" fill="none" xmlns="http://www.w3.org/2000/svg">
<rect x="258.318" y="50" width="81.0089" height="99.9136" transform="rotate(40.8248 258.318 50)" fill="#377692"/>
<path d="M77.6581 102.3L28.6001 202.132L151.908 260.7L169.145 226.092L146.605 215.443L177.1 151.55L77.6581 102.3Z" fill="#377692"/>
<path d="M27.7578 99.4219L17.5625 129H11.3984L24.2422 94.875H28.1797L27.7578 99.4219ZM36.2891 129L26.0703 99.4219L25.625 94.875H29.5859L42.4766 129H36.2891ZM35.7969 116.344V121.008H17.2344V116.344H35.7969Z" fill="#377692"/>
<path d="M214.266 193.578H205.57L205.523 189.289H213.117C214.398 189.289 215.484 189.102 216.375 188.727C217.281 188.336 217.969 187.781 218.438 187.062C218.906 186.328 219.141 185.445 219.141 184.414C219.141 183.273 218.922 182.344 218.484 181.625C218.047 180.906 217.375 180.383 216.469 180.055C215.578 179.727 214.438 179.562 213.047 179.562H207.352V209H201.469V174.875H213.047C214.922 174.875 216.594 175.055 218.062 175.414C219.547 175.773 220.805 176.336 221.836 177.102C222.883 177.852 223.672 178.805 224.203 179.961C224.75 181.117 225.023 182.492 225.023 184.086C225.023 185.492 224.688 186.781 224.016 187.953C223.344 189.109 222.352 190.055 221.039 190.789C219.727 191.523 218.094 191.961 216.141 192.102L214.266 193.578ZM214.008 209H203.719L206.367 204.336H214.008C215.336 204.336 216.445 204.117 217.336 203.68C218.227 203.227 218.891 202.609 219.328 201.828C219.781 201.031 220.008 200.102 220.008 199.039C220.008 197.93 219.812 196.969 219.422 196.156C219.031 195.328 218.414 194.695 217.57 194.258C216.727 193.805 215.625 193.578 214.266 193.578H207.656L207.703 189.289H216.305L217.641 190.906C219.516 190.969 221.055 191.383 222.258 192.148C223.477 192.914 224.383 193.906 224.977 195.125C225.57 196.344 225.867 197.656 225.867 199.062C225.867 201.234 225.391 203.055 224.438 204.523C223.5 205.992 222.148 207.109 220.383 207.875C218.617 208.625 216.492 209 214.008 209Z" fill="#377692"/>
</svg>
