<svg width="88" height="53" viewBox="0 0 88 53" fill="none" xmlns="http://www.w3.org/2000/svg">
<path d="M60.6398 13.9076C59.9812 14.2294 59.337 14.5424 58.6961 14.8583C55.17 16.5937 51.6455 18.3305 48.121 20.0673C41.2969 23.4279 34.4729 26.7899 27.6488 30.1504C24.3042 31.7976 20.9597 33.4433 17.6151 35.0876C16.7589 35.5093 15.7886 35.2639 15.3404 34.5204C14.8906 33.7739 15.183 32.8923 16.0408 32.4676C18.677 31.1613 21.3179 29.8624 23.9557 28.562C25.5894 27.7567 27.2231 26.9515 28.8552 26.1463C28.9131 26.1169 28.9693 26.0846 29.0946 26.014C28.5227 25.4351 28.007 24.8444 27.4159 24.3257C25.6328 22.7593 23.5283 21.7204 21.101 21.262C17.8705 20.6522 14.7975 21.0724 11.9364 22.5712C8.8778 24.1743 6.78624 26.5327 5.82239 29.6405C4.6224 33.5065 5.36135 37.0948 8.01837 40.301C10.0248 42.7226 12.7155 44.1994 15.9766 44.7915C17.1236 45.0002 18.2834 45.0208 19.448 44.9811C21.5637 44.9106 23.6151 44.5623 25.5573 43.7674C26.2544 43.4823 26.9388 43.1723 27.6408 42.8696C27.146 42.1349 26.8006 41.3781 26.6866 40.5464C26.4006 38.4878 27.0705 36.723 28.7669 35.3506C29.4143 34.826 30.2175 34.4616 30.9612 34.0414C31.4657 33.7563 31.9861 33.4948 32.5066 33.2347C33.4255 32.7747 34.3219 33.0055 34.844 33.8298C35.0544 34.1619 35.2681 34.491 35.4865 34.8349C36.3363 34.4293 37.1636 34.0326 37.9925 33.6373C38.3042 33.4874 38.6142 33.3346 38.9275 33.1891C39.7966 32.7865 40.7636 33.0422 41.1957 33.7886C41.6311 34.5366 41.3275 35.4153 40.4664 35.8385C39.4367 36.3439 38.3974 36.8318 37.3612 37.327C37.2954 37.3593 37.2295 37.3931 37.1395 37.4372C37.8239 38.5128 38.5002 39.5752 39.1861 40.6537C39.7114 40.3995 40.219 40.1541 40.7267 39.9102C41.2359 39.6648 41.7419 39.412 42.256 39.1755C43.0977 38.789 44.0407 39.055 44.4728 39.7926C44.9001 40.5215 44.6094 41.4031 43.7837 41.8175C42.9098 42.2568 42.0247 42.6756 41.1459 43.1047C41.048 43.1517 40.9532 43.2031 40.8423 43.2604C40.9467 43.4191 41.0447 43.5646 41.1379 43.713C41.5684 44.4036 41.3917 45.2955 40.6608 45.6982C39.5058 46.3329 38.3524 46.9898 37.1283 47.4967C34.4552 48.6061 31.26 47.7994 29.509 45.6511C29.3629 45.4719 29.2584 45.4616 29.056 45.5586C27.7034 46.211 26.3187 46.7987 24.852 47.2102C22.9291 47.7509 20.9549 47.9522 18.9517 47.9934C15.0336 48.0742 11.4963 47.0662 8.4007 44.8694C5.07059 42.5066 2.98224 39.4165 2.26739 35.6122C1.42241 31.1217 2.58225 27.0632 5.71637 23.5263C8.30752 20.6022 11.6794 18.8125 15.7533 18.2144C20.2898 17.5488 24.4231 18.4921 28.1195 20.9916C29.5428 21.9541 30.7428 23.1193 31.7596 24.4432C31.8078 24.5064 31.8592 24.5696 31.9219 24.6475C34.1966 23.5263 36.4616 22.411 38.7588 21.2796C38.5853 21.1033 38.4311 20.9416 38.2705 20.7844C34.9885 17.5459 31.705 14.3073 28.4215 11.0702C27.4673 10.1298 26.5083 9.19376 25.5605 8.24747C25.4271 8.11375 25.3163 8.102 25.1396 8.15343C24.2496 8.41645 23.3597 8.68241 22.4585 8.91164C22.142 8.99245 21.7934 9.00274 21.4625 8.99245C20.8906 8.97482 20.4778 8.69857 20.2978 8.20338C20.1806 7.87865 20.1019 7.53334 20.0778 7.19243C20.044 6.70753 20.028 6.21381 20.0938 5.73332C20.1918 5.02506 20.881 4.51371 21.6617 4.51224C25.6231 4.5093 29.5829 4.51077 33.5444 4.51224C33.7243 4.51224 33.9058 4.53428 34.0825 4.55926C34.6383 4.64008 34.9082 5.01037 34.7829 5.51584C34.6833 5.91699 34.3974 6.19471 34.0456 6.42247C33.3355 6.88239 32.5227 7.11456 31.6793 7.24386C30.9516 7.35407 30.2127 7.40403 29.4785 7.47897C29.4223 7.48484 29.3661 7.48632 29.2665 7.49366C29.7677 7.98885 30.2384 8.45465 30.709 8.91898C33.5058 11.6785 36.3026 14.4381 39.0994 17.1976C39.9299 18.0175 40.7668 18.8316 41.5925 19.6574C41.7194 19.7838 41.8062 19.7823 41.9604 19.7073C45.2857 18.0646 48.6126 16.4276 51.9395 14.7893C54.5033 13.527 57.0672 12.2663 59.631 11.0041C59.7386 10.9512 59.8318 10.9218 59.7884 10.7631C59.2149 8.67653 58.6495 6.58704 58.076 4.4711C57.9973 4.4711 57.9137 4.4711 57.8286 4.4711C56.2366 4.45347 54.6447 4.43142 53.0511 4.4182C51.2086 4.40204 49.6567 3.79223 48.3925 2.5594C47.7756 1.95842 47.7483 1.05033 48.3555 0.469912C48.9788 -0.125196 49.9829 -0.160461 50.6576 0.394973C50.8037 0.515465 50.9531 0.640364 51.072 0.782896C51.3901 1.16347 51.827 1.3207 52.325 1.34568C53.4848 1.40298 54.6447 1.46176 55.8045 1.48821C56.9579 1.51466 58.1113 1.5029 59.2647 1.50731C60.227 1.51172 60.8085 1.96283 61.035 2.81802C61.7788 5.6334 62.5354 8.44731 63.2969 11.2597C63.9025 13.5006 64.5242 15.737 65.1378 17.9764C65.1539 18.0366 65.1764 18.0954 65.2021 18.1748C65.5956 18.138 65.986 18.0969 66.378 18.066C69.0719 17.8588 71.6663 18.2453 74.1289 19.2548C78.5771 21.0798 81.6052 24.117 83.1843 28.3372C83.8976 30.243 84.1144 32.212 83.9458 34.2221C83.4895 39.6413 79.7466 44.433 74.3619 46.665C72.0133 47.6392 69.5474 48.0918 66.9707 47.9846C62.3475 47.7906 58.4776 46.1052 55.3788 42.9783C53.1427 40.7213 51.7579 38.0587 51.3644 35.0332C50.6543 29.5597 52.6511 25.0148 57.2246 21.431C58.5788 20.37 60.1258 19.581 61.7965 19.0064C61.9683 18.9477 62.0149 18.8815 61.9683 18.7155C61.5378 17.1741 61.1169 15.6298 60.6929 14.0854C60.6784 14.034 60.6575 13.9855 60.6334 13.9164L60.6398 13.9076ZM66.0149 21.1106C66.0519 21.2473 66.0872 21.3825 66.1258 21.5191C66.8663 24.1978 67.6085 26.8766 68.3474 29.5553C68.6478 30.6441 68.9739 31.7285 69.2326 32.8247C69.4639 33.8033 68.4262 34.71 67.3499 34.5189C66.5579 34.3779 66.1627 33.9003 65.9748 33.217C65.1153 30.0799 64.2462 26.9442 63.3804 23.8085C63.2005 23.156 63.0157 22.5051 62.8342 21.8527C57.186 23.7702 53.1154 29.6155 54.9178 36.0574C56.6864 42.3729 63.774 46.2066 70.7603 44.6534C77.6582 43.1194 81.9715 36.7803 80.4181 30.3899C78.8566 23.9686 72.2077 20.3127 66.0149 21.1106ZM32.7845 36.535C32.3653 36.7568 31.9845 36.9728 31.5894 37.1624C29.9203 37.9632 29.3918 39.7706 30.3958 41.2341C30.9066 41.9791 31.3677 42.7535 31.8544 43.5117C32.4922 44.5065 33.4432 45.0017 34.7074 44.9928C35.7885 44.9855 36.5773 44.3566 37.4849 43.9305C35.9106 41.4516 34.354 39.0006 32.7861 36.535H32.7845Z" fill="#265970"/>
</svg>
