<svg width="82" height="48" viewBox="0 0 82 48" fill="none" xmlns="http://www.w3.org/2000/svg">
<path d="M58.6398 13.9076C57.9812 14.2294 57.337 14.5424 56.6961 14.8583C53.17 16.5937 49.6455 18.3305 46.121 20.0673C39.2969 23.4279 32.4729 26.7899 25.6488 30.1504C22.3042 31.7976 18.9597 33.4433 15.6151 35.0876C14.7589 35.5093 13.7886 35.2639 13.3404 34.5204C12.8906 33.7739 13.183 32.8923 14.0408 32.4676C16.677 31.1613 19.3179 29.8624 21.9557 28.562C23.5894 27.7567 25.2231 26.9515 26.8552 26.1463C26.9131 26.1169 26.9693 26.0846 27.0946 26.014C26.5227 25.4351 26.007 24.8444 25.4159 24.3257C23.6328 22.7593 21.5283 21.7204 19.101 21.262C15.8705 20.6522 12.7975 21.0724 9.93642 22.5712C6.8778 24.1743 4.78625 26.5327 3.82239 29.6405C2.6224 33.5065 3.36135 37.0948 6.01837 40.301C8.02479 42.7226 10.7155 44.1994 13.9766 44.7915C15.1236 45.0002 16.2834 45.0208 17.448 44.9811C19.5637 44.9106 21.6151 44.5623 23.5573 43.7674C24.2544 43.4823 24.9388 43.1723 25.6408 42.8696C25.146 42.1349 24.8006 41.3781 24.6866 40.5464C24.4006 38.4878 25.0705 36.723 26.7669 35.3506C27.4143 34.826 28.2175 34.4616 28.9612 34.0414C29.4657 33.7563 29.9861 33.4948 30.5066 33.2347C31.4255 32.7748 32.3219 33.0055 32.844 33.8298C33.0544 34.1619 33.2681 34.491 33.4865 34.8349C34.3363 34.4293 35.1636 34.0326 35.9925 33.6373C36.3042 33.4874 36.6142 33.3346 36.9275 33.1891C37.7966 32.7865 38.7636 33.0422 39.1957 33.7886C39.6311 34.5366 39.3275 35.4153 38.4664 35.8385C37.4367 36.3439 36.3974 36.8318 35.3612 37.327C35.2954 37.3593 35.2295 37.3931 35.1395 37.4372C35.8239 38.5128 36.5002 39.5752 37.1861 40.6537C37.7114 40.3995 38.219 40.1541 38.7267 39.9102C39.2359 39.6648 39.7419 39.412 40.256 39.1755C41.0977 38.789 42.0407 39.055 42.4728 39.7926C42.9001 40.5214 42.6094 41.4031 41.7837 41.8175C40.9098 42.2568 40.0247 42.6756 39.1459 43.1047C39.048 43.1517 38.9532 43.2031 38.8423 43.2604C38.9467 43.4191 39.0447 43.5646 39.1379 43.713C39.5684 44.4036 39.3917 45.2955 38.6608 45.6982C37.5058 46.3329 36.3524 46.9898 35.1283 47.4967C32.4552 48.6061 29.26 47.7994 27.509 45.6511C27.3629 45.4719 27.2584 45.4616 27.056 45.5586C25.7034 46.211 24.3187 46.7987 22.852 47.2102C20.9291 47.7509 18.9549 47.9522 16.9517 47.9934C13.0336 48.0742 9.49627 47.0662 6.4007 44.8694C3.07059 42.5066 0.982245 39.4165 0.267388 35.6122C-0.577588 31.1217 0.582246 27.0632 3.71637 23.5263C6.30752 20.6022 9.6794 18.8125 13.7533 18.2144C18.2898 17.5488 22.4231 18.4921 26.1195 20.9916C27.5428 21.9541 28.7428 23.1193 29.7596 24.4432C29.8078 24.5064 29.8592 24.5696 29.9219 24.6475C32.1966 23.5263 34.4616 22.411 36.7588 21.2796C36.5853 21.1033 36.4311 20.9416 36.2705 20.7844C32.9885 17.5459 29.705 14.3073 26.4215 11.0702C25.4673 10.1298 24.5083 9.19376 23.5605 8.24747C23.4271 8.11375 23.3163 8.102 23.1396 8.15343C22.2496 8.41645 21.3597 8.68241 20.4585 8.91164C20.142 8.99245 19.7934 9.00274 19.4625 8.99245C18.8906 8.97482 18.4778 8.69857 18.2978 8.20338C18.1806 7.87865 18.1019 7.53334 18.0778 7.19243C18.044 6.70753 18.028 6.21381 18.0938 5.73332C18.1918 5.02506 18.881 4.51371 19.6617 4.51224C23.6231 4.5093 27.5829 4.51077 31.5444 4.51224C31.7243 4.51224 31.9058 4.53428 32.0825 4.55926C32.6383 4.64008 32.9082 5.01037 32.7829 5.51584C32.6833 5.91699 32.3974 6.19471 32.0456 6.42247C31.3355 6.88239 30.5227 7.11456 29.6793 7.24386C28.9516 7.35407 28.2127 7.40403 27.4785 7.47897C27.4223 7.48484 27.3661 7.48632 27.2665 7.49366C27.7677 7.98885 28.2384 8.45465 28.709 8.91898C31.5058 11.6785 34.3026 14.4381 37.0994 17.1976C37.9299 18.0175 38.7668 18.8316 39.5925 19.6574C39.7194 19.7838 39.8062 19.7823 39.9604 19.7073C43.2857 18.0646 46.6126 16.4276 49.9395 14.7893C52.5033 13.527 55.0672 12.2663 57.631 11.0041C57.7386 10.9512 57.8318 10.9218 57.7884 10.7631C57.2149 8.67653 56.6495 6.58704 56.076 4.4711C55.9973 4.4711 55.9137 4.4711 55.8286 4.4711C54.2366 4.45347 52.6447 4.43142 51.0511 4.4182C49.2086 4.40204 47.6568 3.79223 46.3925 2.5594C45.7756 1.95842 45.7483 1.05033 46.3555 0.469912C46.9788 -0.125196 47.9829 -0.160461 48.6576 0.394973C48.8037 0.515465 48.9531 0.640364 49.072 0.782896C49.3901 1.16347 49.827 1.3207 50.325 1.34568C51.4848 1.40298 52.6447 1.46176 53.8045 1.48821C54.9579 1.51466 56.1113 1.5029 57.2647 1.50731C58.227 1.51172 58.8085 1.96283 59.035 2.81802C59.7788 5.6334 60.5354 8.44731 61.2969 11.2597C61.9025 13.5006 62.5242 15.737 63.1378 17.9764C63.1539 18.0366 63.1764 18.0954 63.2021 18.1748C63.5956 18.138 63.986 18.0969 64.378 18.066C67.0719 17.8588 69.6663 18.2453 72.1289 19.2548C76.5771 21.0798 79.6052 24.117 81.1843 28.3372C81.8976 30.243 82.1144 32.212 81.9458 34.2221C81.4895 39.6413 77.7466 44.433 72.3619 46.665C70.0133 47.6392 67.5474 48.0918 64.9707 47.9845C60.3475 47.7906 56.4776 46.1052 53.3788 42.9783C51.1427 40.7213 49.7579 38.0587 49.3644 35.0332C48.6543 29.5597 50.6511 25.0148 55.2246 21.431C56.5788 20.37 58.1258 19.581 59.7965 19.0064C59.9683 18.9477 60.0149 18.8815 59.9683 18.7155C59.5378 17.1741 59.1169 15.6298 58.6929 14.0854C58.6784 14.034 58.6575 13.9855 58.6334 13.9164L58.6398 13.9076ZM64.0149 21.1106C64.0519 21.2473 64.0872 21.3825 64.1258 21.5191C64.8663 24.1978 65.6085 26.8766 66.3474 29.5553C66.6478 30.6441 66.9739 31.7285 67.2326 32.8247C67.4639 33.8033 66.4262 34.71 65.3499 34.5189C64.5579 34.3779 64.1627 33.9003 63.9748 33.217C63.1153 30.0799 62.2462 26.9442 61.3804 23.8085C61.2005 23.156 61.0157 22.5051 60.8342 21.8527C55.186 23.7702 51.1154 29.6155 52.9178 36.0574C54.6864 42.3729 61.774 46.2066 68.7603 44.6534C75.6582 43.1194 79.9715 36.7803 78.4181 30.3899C76.8566 23.9686 70.2077 20.3127 64.0149 21.1106ZM30.7845 36.535C30.3653 36.7568 29.9845 36.9728 29.5894 37.1624C27.9203 37.9632 27.3918 39.7706 28.3958 41.2341C28.9066 41.9791 29.3677 42.7535 29.8544 43.5117C30.4922 44.5065 31.4432 45.0017 32.7074 44.9928C33.7885 44.9855 34.5773 44.3566 35.4849 43.9305C33.9106 41.4516 32.354 39.0006 30.7861 36.535H30.7845Z" fill="#265970"/>
</svg>
