<svg width="88" height="53" viewBox="0 0 88 53" fill="none" xmlns="http://www.w3.org/2000/svg">
<path fill-rule="evenodd" clip-rule="evenodd" d="M77.543 44.9233C81.1831 42.3778 83.5861 38.495 83.9458 34.2221C84.1145 32.212 83.8976 30.243 83.1844 28.3372C81.6053 24.117 78.5772 21.0798 74.129 19.2548C71.6664 18.2453 69.072 17.8588 66.378 18.066C66.1081 18.0873 65.839 18.1134 65.569 18.1396C65.447 18.1515 65.3247 18.1633 65.2021 18.1748C65.193 18.1466 65.1843 18.1211 65.1762 18.0972C65.1613 18.0536 65.1483 18.0153 65.1379 17.9764C64.9319 17.2246 64.725 16.4731 64.5181 15.7217L64.5129 15.703C64.1052 14.2224 63.6976 12.742 63.2969 11.2597C62.5355 8.44731 61.7789 5.6334 61.0351 2.81802C60.8086 1.96283 60.2271 1.51172 59.2648 1.50731C58.9219 1.506 58.579 1.50612 58.2361 1.50624C57.4256 1.50652 56.6151 1.5068 55.8046 1.48821C54.6952 1.46291 53.5858 1.40804 52.4764 1.35316L52.3251 1.34568C51.8271 1.3207 51.3902 1.16347 51.0721 0.782896C50.9532 0.640364 50.8038 0.515465 50.6576 0.394973C49.9829 -0.160461 48.9789 -0.125196 48.3556 0.469912C47.7484 1.05033 47.7757 1.95842 48.3926 2.5594C49.6568 3.79223 51.2086 4.40204 53.0512 4.4182C54.1143 4.42702 55.1768 4.43977 56.239 4.45251C56.7686 4.45887 57.2991 4.46523 57.8287 4.4711H58.0761L58.2296 5.03777L58.2302 5.03978C58.7511 6.96181 59.2665 8.86366 59.7885 10.7631C59.8285 10.9093 59.7525 10.9458 59.6561 10.992L59.6311 11.0041C58.35 11.6348 57.0689 12.2651 55.7878 12.8955L55.7779 12.9003C54.4984 13.5298 53.219 14.1594 51.9396 14.7893L50.1359 15.6774C47.4103 17.0195 44.6848 18.3614 41.9605 19.7073C41.8063 19.7823 41.7195 19.7838 41.5926 19.6574C41.0546 19.1193 40.5118 18.5862 39.9692 18.0533L39.9677 18.0519C39.678 17.7673 39.3883 17.4828 39.0994 17.1976L30.7091 8.91898C30.4021 8.61611 30.0951 8.31261 29.7796 8.00074L29.2666 7.49366C29.3091 7.49052 29.3437 7.48846 29.3738 7.48666C29.4141 7.48426 29.4464 7.48233 29.4786 7.47897C29.6939 7.45699 29.9095 7.43717 30.1252 7.41734C30.6451 7.36955 31.1651 7.32175 31.6794 7.24386C32.5228 7.11456 33.3356 6.88239 34.0457 6.42247C34.3975 6.19471 34.6834 5.91699 34.783 5.51584C34.9083 5.01037 34.6384 4.64008 34.0826 4.55926C33.9059 4.53428 33.7244 4.51224 33.5444 4.51224C29.5832 4.51077 25.623 4.5093 21.6618 4.51224C20.881 4.51371 20.1919 5.02506 20.0939 5.73332C20.028 6.21381 20.0441 6.70753 20.0778 7.19243C20.1019 7.53334 20.1806 7.87865 20.2979 8.20338C20.4778 8.69857 20.8907 8.97482 21.4626 8.99245C21.7935 9.00274 22.1421 8.99245 22.4585 8.91164C23.2982 8.69807 24.1281 8.45261 24.9573 8.20736L25.1397 8.15343C25.3164 8.102 25.4272 8.11375 25.5605 8.24747C26.2239 8.90983 26.8929 9.56714 27.5618 10.2245C27.8485 10.5062 28.1353 10.7881 28.4216 11.0702C31.7051 14.3073 34.9886 17.5459 38.2705 20.7844C38.3805 20.892 38.4874 21.0017 38.5995 21.1167C38.6291 21.147 38.6591 21.1778 38.6896 21.209C38.7124 21.2323 38.7355 21.2558 38.7589 21.2796L37.902 21.7017L2.20772 0.792008C1.54056 0.401189 0.682906 0.625204 0.292087 1.29236C-0.0987322 1.95952 0.125283 2.81717 0.792439 3.20799L85.2924 52.708C85.9596 53.0988 86.8173 52.8748 87.2081 52.2076C87.5989 51.5405 87.3749 50.6828 86.7077 50.292L77.543 44.9233ZM60.6399 13.9076L60.0877 14.1772C59.6194 14.4056 59.1569 14.6312 58.6961 14.8583C55.1759 16.5908 51.6573 18.3248 48.1386 20.0587L48.1211 20.0673C45.7654 21.2274 43.4096 22.3877 41.0539 23.548L51.5867 29.7182C52.3321 26.5481 54.2236 23.7826 57.2247 21.431C58.5789 20.37 60.1259 19.581 61.7965 19.0064C61.9684 18.9477 62.015 18.8815 61.9684 18.7155C61.6394 17.5374 61.3159 16.3575 60.9924 15.1772L60.9919 15.1753C60.8923 14.812 60.7927 14.4487 60.6929 14.0854C60.6839 14.0531 60.6723 14.022 60.6589 13.9863C60.651 13.9651 60.6425 13.9421 60.6335 13.9164L60.6399 13.9076ZM54.5879 31.4762L74.5774 43.1861C79.1543 40.5709 81.6595 35.4968 80.4181 30.3899C78.8567 23.9686 72.2077 20.3127 66.015 21.1106L66.0481 21.234C66.0736 21.329 66.0989 21.4237 66.1258 21.5191C66.3735 22.4148 66.6213 23.3106 66.8691 24.2063C67.3624 25.9893 67.8557 27.7723 68.3475 29.5553C68.4303 29.8553 68.515 30.1551 68.5998 30.4548C68.8224 31.2424 69.0454 32.0309 69.2327 32.8247C69.464 33.8033 68.4262 34.71 67.3499 34.5189C66.558 34.3779 66.1628 33.9003 65.9748 33.217C65.3241 30.8416 64.6678 28.467 64.0116 26.0926C63.8011 25.3312 63.5907 24.5698 63.3805 23.8085C63.2742 23.4231 63.1662 23.0382 63.0583 22.6533C62.9834 22.3865 62.9086 22.1197 62.8343 21.8527C58.5708 23.3001 55.2062 26.9856 54.5879 31.4762Z" fill="#828282"/>
<path fill-rule="evenodd" clip-rule="evenodd" d="M20.0712 18.0756L34.7302 26.6628C32.3698 27.8254 30.0093 28.988 27.6489 30.1504C24.3043 31.7976 20.9598 33.4433 17.6152 35.0876C16.759 35.5093 15.7887 35.2639 15.3405 34.5204C14.8907 33.7739 15.1831 32.8923 16.0409 32.4676C18.0461 31.474 20.0541 30.4846 22.0613 29.4956L22.0637 29.4944C22.6945 29.1836 23.3252 28.8728 23.9557 28.562C25.5895 27.7567 27.2232 26.9515 28.8553 26.1463C28.9038 26.1217 28.9511 26.095 29.0388 26.0455L29.0947 26.014C28.9123 25.8294 28.7356 25.6436 28.5604 25.4593C28.1862 25.0656 27.8186 24.679 27.416 24.3257C25.6328 22.7593 23.5284 21.7204 21.1011 21.262C17.8706 20.6522 14.7975 21.0724 11.9365 22.5712C8.87788 24.1743 6.78632 26.5327 5.82247 29.6405C4.62248 33.5065 5.36143 37.0948 8.01845 40.301C10.0249 42.7226 12.7156 44.1994 15.9766 44.7915C17.1236 45.0002 18.2835 45.0208 19.4481 44.9811C21.5638 44.9106 23.6152 44.5623 25.5573 43.7674C26.0243 43.5764 26.4855 43.3743 26.9501 43.1707C27.1791 43.0703 27.4091 42.9695 27.6409 42.8696C27.1461 42.1349 26.8007 41.3781 26.6866 40.5464C26.4007 38.4878 27.0706 36.723 28.767 35.3506C29.243 34.9649 29.8034 34.6657 30.3624 34.3673C30.5634 34.2599 30.7646 34.1525 30.9613 34.0414C31.4657 33.7563 31.9862 33.4948 32.5067 33.2347C33.4256 32.7747 34.322 33.0055 34.844 33.8298C34.9546 34.0042 35.066 34.1779 35.1786 34.3533L35.1793 34.3544C35.2808 34.5125 35.3832 34.672 35.4866 34.8349C35.8812 34.6466 36.2709 34.4602 36.6581 34.2749L36.6625 34.2728C37.1079 34.0598 37.55 33.8484 37.9926 33.6373C38.0844 33.5932 38.176 33.5488 38.2676 33.5044C38.487 33.3981 38.7066 33.2917 38.9276 33.1891C39.7966 32.7865 40.7637 33.0422 41.1958 33.7886C41.6312 34.5366 41.3275 35.4153 40.4665 35.8385C39.7307 36.1996 38.99 36.5518 38.2491 36.9041C37.9531 37.0448 37.6571 37.1856 37.3613 37.327C37.3315 37.3416 37.3017 37.3565 37.2697 37.3725C37.2534 37.3807 37.2365 37.3892 37.2188 37.398C37.1943 37.4102 37.1682 37.4232 37.1396 37.4372L37.9315 38.6816C38.3488 39.3374 38.7657 39.9925 39.1862 40.6537C39.7115 40.3995 40.2191 40.1541 40.7267 39.9102C40.8827 39.835 41.0383 39.7592 41.1939 39.6834L41.1958 39.6825C41.5479 39.5109 41.9 39.3393 42.2561 39.1755C43.0978 38.789 44.0408 39.055 44.4729 39.7926C44.9002 40.5214 44.6095 41.4031 43.7838 41.8175C43.2069 42.1075 42.6252 42.3885 42.0437 42.6694L42.042 42.6703C41.743 42.8147 41.4442 42.9591 41.146 43.1047C41.0768 43.1379 41.0092 43.1733 40.9365 43.2114C40.9062 43.2272 40.875 43.2436 40.8424 43.2604L40.9214 43.38C40.9967 43.4938 41.0687 43.6026 41.138 43.713C41.5685 44.4036 41.3918 45.2955 40.6609 45.6982C40.5377 45.7659 40.4145 45.8339 40.2912 45.9019L40.2858 45.9049C39.2554 46.4734 38.2199 47.0447 37.1284 47.4967C34.4553 48.6061 31.2601 47.7994 29.5091 45.6511C29.3629 45.4719 29.2585 45.4616 29.0561 45.5586C27.7035 46.211 26.3188 46.7987 24.8521 47.2102C22.9292 47.7509 20.9549 47.9522 18.9517 47.9934C15.0337 48.0742 11.4963 47.0662 8.40078 44.8694C5.07067 42.5066 2.98232 39.4165 2.26747 35.6122C1.42249 31.1217 2.58233 27.0632 5.71645 23.5263C8.3076 20.6022 11.6795 18.8125 15.7534 18.2144C17.2361 17.9969 18.6757 17.9512 20.0712 18.0756ZM32.4117 36.735C32.1327 36.8856 31.8646 37.0304 31.5894 37.1624C29.9204 37.9632 29.3919 39.7706 30.3959 41.2341C30.7308 41.7225 31.0443 42.2236 31.3577 42.7244C31.5223 42.9875 31.6869 43.2506 31.8545 43.5117C32.4922 44.5065 33.4432 45.0017 34.7075 44.9928C35.5127 44.9874 36.1558 44.6371 36.8065 44.2826C37.0295 44.1612 37.2534 44.0392 37.485 43.9305C35.9107 41.4516 34.3541 39.0006 32.7862 36.535H32.7846C32.6575 36.6022 32.5332 36.6694 32.4117 36.735Z" fill="#828282"/>
<path d="M65.8416 44.8878L70.7075 47.7383C69.4895 47.9539 68.2437 48.0375 66.9708 47.9846C62.3475 47.7906 58.4777 46.1052 55.3789 42.9783C53.532 41.1141 52.2659 38.9733 51.6593 36.5799L56.4951 39.4127C58.557 42.4048 62.0069 44.4091 65.8416 44.8878Z" fill="#828282"/>
</svg>
