<svg width="218" height="218" viewBox="0 0 218 218" fill="none" xmlns="http://www.w3.org/2000/svg">
<path d="M157.155 107.938C154.295 102.281 151.511 96.7751 148.587 90.9969C148.066 91.758 147.665 92.2971 147.316 92.8616C136.638 110.012 125.947 127.15 115.332 144.339C114.436 145.791 113.496 146.292 111.792 146.28C102.411 146.191 93.0293 146.242 83.6478 146.242C82.9423 146.242 82.2368 146.242 81.4169 146.242C79.8088 160.716 72.9952 171.815 60.2704 178.9C50.622 184.272 40.2681 185.351 29.6727 182.37C7.78894 176.211 -4.54806 154.088 1.56006 132.091C7.54741 110.526 32.2786 95.6905 57.3213 106.048C59.3615 102.737 61.4272 99.4073 63.4802 96.0647C66.7599 90.7305 70.0205 85.3836 73.3257 80.0685C73.885 79.1678 73.993 78.4764 73.4591 77.4489C71.3489 73.396 69.404 69.2542 67.3256 65.1758C67.1349 64.8016 66.4675 64.5035 65.9972 64.4655C64.7768 64.3576 63.5311 64.5035 62.3171 64.3767C60.6899 64.2118 59.495 62.8037 59.6476 61.3576C59.8319 59.6704 61.1158 59.3406 62.4696 59.3342C69.7155 59.3025 76.9613 59.3152 84.2071 59.3342C85.758 59.3342 87.1182 59.7465 87.2072 61.6113C87.2771 63.0637 85.8152 64.364 84.0482 64.4147C81.5249 64.4845 79.0016 64.4338 76.4782 64.4464C76.224 64.4464 75.9698 64.5035 75.3723 64.5796C76.4401 66.7552 77.6986 68.7214 78.3914 70.8716C79.5673 74.5059 81.741 75.432 85.5355 75.3812C103.002 75.1339 120.474 75.2734 137.941 75.2734C138.703 75.2734 139.46 75.2734 140.585 75.2734C140.165 74.3791 139.892 73.7638 139.587 73.1613C135.869 65.7911 132.138 58.4272 128.419 51.0634C126.97 48.1901 127.339 46.8709 130.009 45.0632C134.979 41.6889 139.949 38.3083 144.907 34.9149C147.043 33.4561 149.267 33.7542 150.666 35.7204C151.759 37.249 151.161 39.469 149.127 40.8897C145.314 43.5537 141.449 46.1415 137.604 48.7673C137.083 49.1225 136.587 49.5221 135.958 49.9978C137.49 53.055 138.977 56.0487 140.483 59.0298C147.932 73.7575 155.42 88.4725 162.799 103.238C163.568 104.773 164.261 104.875 165.755 104.437C189.621 97.3776 214.187 113.177 217.607 137.736C220.62 159.377 206.007 179.42 184.371 183.327C162.844 187.209 141.894 173.122 137.388 151.734C133.905 135.193 140.954 118.423 155.299 109.118C155.839 108.769 156.386 108.433 157.142 107.964L157.155 107.938ZM160.517 114.611C146.795 122.158 139.04 140.85 147.214 157.589C155.223 173.978 174.698 181.101 190.931 173.604C207.793 165.815 215.223 146.318 207.679 129.63C199.785 112.169 180.583 106.936 167.223 111.731C167.426 112.194 167.611 112.663 167.839 113.107C172.988 123.3 178.142 133.493 183.278 143.692C183.621 144.371 183.946 145.113 184.047 145.855C184.27 147.466 183.094 149.572 181.95 149.844C180.195 150.263 177.996 149.591 177.424 148.436C175.149 143.812 172.912 139.17 170.604 134.558C167.286 127.93 163.918 121.328 160.517 114.611ZM53.2788 112.644C42.9948 107.926 26.5836 109.048 15.7276 121.182C5.48171 132.637 4.4711 149.832 13.2932 162.371C22.1281 174.923 38.4757 179.934 52.5161 174.39C64.3764 169.71 74.9909 155.641 73.618 146.178H32.7172C39.6706 134.844 46.4398 123.808 53.2852 112.644H53.2788ZM83.9148 81.8508C92.9911 100.124 101.89 118.023 110.902 136.169C111.551 135.199 111.989 134.571 112.396 133.918C122.394 117.877 132.392 101.83 142.384 85.7832C143.648 83.7536 143.534 83.1066 141.494 82.0791C140.966 81.8127 140.248 81.8571 139.619 81.8571C122.413 81.8444 105.207 81.8508 88.0017 81.8508C86.7813 81.8508 85.5546 81.8508 83.9148 81.8508ZM63.5057 109.632C68.3998 113.025 72.385 117.11 75.4359 122.07C78.474 127.004 80.2919 132.383 81.1245 138.022H104.095C95.3365 120.719 86.6923 103.657 77.902 86.3033C72.957 94.3141 68.2599 101.932 63.5057 109.638V109.632ZM59.6666 115.848C55.0395 123.345 50.5648 130.607 45.9567 138.079H73.6943C72.029 128.768 67.44 121.492 59.673 115.848H59.6666Z" fill="#265970"/>
<path d="M175.554 172.985C160.504 172.597 148.013 159.84 148 145.305C148 142.726 148.997 141.312 151.009 141.051C153.643 140.707 155.147 142.115 155.299 144.968C155.756 153.611 159.755 160.075 167.607 163.68C170.393 164.954 173.687 165.145 176.766 165.737C178.873 166.138 180.124 167.559 179.99 169.629C179.863 171.616 178.524 172.89 176.442 172.992C175.992 173.011 175.541 172.992 175.547 172.992L175.554 172.985Z" fill="#265970"/>
<path d="M38.5536 172.985C23.5041 172.597 11.0127 159.84 11 145.305C11 142.726 11.9965 141.312 14.0086 141.051C16.6427 140.707 18.147 142.115 18.2994 144.968C18.7564 153.611 22.7552 160.075 30.6068 163.68C33.3932 164.954 36.6875 165.145 39.7659 165.737C41.8732 166.138 43.1236 167.559 42.9903 169.629C42.8634 171.616 41.5241 172.89 39.4422 172.992C38.9915 173.011 38.5409 172.992 38.5472 172.992L38.5536 172.985Z" fill="#265970"/>
</svg>
