<svg width="496" height="496" viewBox="0 0 496 496" fill="none" xmlns="http://www.w3.org/2000/svg">
<path d="M337.962 245.525C332.649 235.002 327.477 224.762 322.045 214.014C321.076 215.43 320.333 216.433 319.683 217.483C299.845 249.383 279.984 281.259 260.264 313.23C258.6 315.932 256.852 316.864 253.687 316.84C236.258 316.675 218.83 316.769 201.401 316.769C200.09 316.769 198.779 316.769 197.256 316.769C194.269 343.691 181.61 364.336 157.97 377.514C140.046 387.507 120.81 389.512 101.126 383.967C60.4703 372.512 37.5506 331.363 48.8983 290.449C60.0216 250.338 105.967 222.744 152.491 242.009C156.282 235.851 160.119 229.658 163.933 223.44C170.026 213.519 176.084 203.574 182.224 193.687C183.263 192.012 183.464 190.726 182.472 188.815C178.552 181.276 174.939 173.573 171.077 165.987C170.723 165.291 169.483 164.737 168.609 164.666C166.342 164.465 164.028 164.737 161.773 164.501C158.75 164.194 156.53 161.575 156.813 158.885C157.156 155.747 159.541 155.133 162.056 155.122C175.517 155.063 188.979 155.086 202.44 155.122C205.321 155.122 207.848 155.889 208.013 159.357C208.143 162.059 205.427 164.477 202.145 164.571C197.457 164.701 192.769 164.607 188.081 164.63C187.609 164.63 187.136 164.737 186.027 164.878C188.01 168.925 190.348 172.582 191.635 176.581C193.82 183.341 197.858 185.063 204.908 184.969C237.357 184.509 269.817 184.769 302.266 184.769C303.683 184.769 305.088 184.769 307.178 184.769C306.399 183.105 305.891 181.961 305.324 180.84C298.417 167.131 291.485 153.435 284.577 139.738C281.885 134.394 282.57 131.94 287.53 128.578C296.764 122.301 305.998 116.013 315.208 109.702C319.175 106.988 323.308 107.543 325.906 111.2C327.937 114.043 326.827 118.172 323.048 120.815C315.964 125.77 308.784 130.583 301.64 135.467C300.672 136.128 299.751 136.871 298.582 137.756C301.428 143.442 304.191 149.011 306.989 154.555C320.829 181.949 334.739 209.319 348.448 236.783C349.877 239.638 351.164 239.827 353.939 239.013C398.278 225.882 443.917 255.27 450.27 300.949C455.867 341.202 428.72 378.482 388.525 385.749C348.53 392.969 309.611 366.767 301.239 326.986C294.768 296.218 307.863 265.026 334.514 247.719C335.518 247.071 336.533 246.445 337.939 245.572L337.962 245.525ZM344.209 257.936C318.715 271.975 304.309 306.742 319.494 337.875C334.372 368.359 370.553 381.608 400.711 367.663C432.038 353.176 445.842 316.911 431.825 285.872C417.16 253.394 381.487 243.661 356.666 252.58C357.044 253.441 357.387 254.314 357.812 255.14C367.376 274.098 376.953 293.057 386.494 312.027C387.131 313.289 387.734 314.669 387.923 316.05C388.336 319.046 386.151 322.963 384.026 323.47C380.767 324.249 376.681 322.998 375.618 320.851C371.391 312.251 367.235 303.615 362.948 295.039C356.784 282.71 350.526 270.429 344.209 257.936ZM144.981 254.279C125.876 245.501 95.387 247.59 75.2187 270.158C56.1839 291.464 54.3064 323.447 70.6961 346.77C87.1095 370.117 117.48 379.437 143.564 369.126C165.598 360.42 185.318 334.253 182.767 316.651H106.782C119.7 295.57 132.276 275.042 144.993 254.279H144.981ZM201.897 197.002C218.759 230.991 235.29 264.283 252.034 298.035C253.239 296.23 254.053 295.062 254.809 293.847C273.383 264.012 291.958 234.164 310.52 204.317C312.87 200.542 312.657 199.338 308.867 197.427C307.887 196.932 306.552 197.014 305.383 197.014C273.419 196.991 241.454 197.002 209.489 197.002C207.222 197.002 204.943 197.002 201.897 197.002ZM163.981 248.675C173.073 254.987 180.477 262.584 186.145 271.81C191.789 280.988 195.166 290.992 196.713 301.48H239.388C223.116 269.297 207.057 237.562 190.726 205.284C181.539 220.184 172.813 234.353 163.981 248.687V248.675ZM156.849 260.236C148.252 274.181 139.939 287.689 131.378 301.586H182.909C179.815 284.268 171.29 270.736 156.86 260.236H156.849Z" fill="#265970"/>
<path d="M371.123 366.897C343.14 366.175 319.914 342.454 319.89 315.43C319.89 310.634 321.743 308.005 325.485 307.519C330.382 306.88 333.179 309.497 333.463 314.802C334.312 330.873 341.748 342.893 356.347 349.595C361.528 351.964 367.653 352.319 373.377 353.42C377.295 354.166 379.62 356.807 379.372 360.656C379.136 364.351 376.646 366.719 372.775 366.909C371.937 366.944 371.099 366.909 371.111 366.909L371.123 366.897Z" fill="#265970"/>
<path d="M117.123 366.897C89.1403 366.175 65.914 342.454 65.8904 315.43C65.8904 310.634 67.7433 308.005 71.4845 307.519C76.3823 306.88 79.1794 309.497 79.4627 314.802C80.3124 330.873 87.7476 342.893 102.347 349.595C107.528 351.964 113.653 352.319 119.377 353.42C123.295 354.166 125.62 356.807 125.372 360.656C125.136 364.351 122.646 366.719 118.775 366.909C117.937 366.944 117.099 366.909 117.111 366.909L117.123 366.897Z" fill="#265970"/>
</svg>
