<svg width="89" height="51" viewBox="0 0 89 51" fill="none" xmlns="http://www.w3.org/2000/svg">
<path fill-rule="evenodd" clip-rule="evenodd" d="M22.753 19.8837L24.4624 17.71L27.5634 19.5265L25.5749 22.0544C27.9014 24.3382 29.4836 27.3697 29.9577 30.7573H35.4818L33.3052 22.8901L37.709 25.4698L38.7517 29.2391L40.8328 27.2997L44.0453 29.1816L39.0302 33.8555C39.0255 33.8597 39.0199 33.8627 39.0142 33.8656C39.0086 33.8686 39.003 33.8716 38.9982 33.8758C38.8572 34.002 38.6936 34.1056 38.5111 34.183L38.4834 34.1938C38.4627 34.202 38.4425 34.2101 38.4211 34.2175C38.4055 34.2233 38.3902 34.23 38.3749 34.2367C38.3495 34.2478 38.324 34.2589 38.2966 34.2663C38.139 34.3104 37.9802 34.3306 37.8237 34.3306H30.0478C29.313 41.9893 22.8727 47.9988 15.06 47.9988C6.75551 47.9988 0 41.2118 0 32.8684C0 24.5251 6.75551 17.7357 15.0612 17.7369C17.8725 17.7369 20.4976 18.5299 22.753 19.8837ZM23.3551 24.8776C24.8769 26.4719 25.9483 28.4985 26.3654 30.7573H18.7317L23.3551 24.8776ZM15.06 44.4267C8.71579 44.4267 3.55553 39.2411 3.55553 32.8684C3.55553 26.4957 8.71579 21.309 15.06 21.309C17.0405 21.309 18.9048 21.815 20.5344 22.7033L13.6651 31.4372C13.2432 31.9742 13.1626 32.7065 13.4601 33.3233C13.7563 33.9389 14.3774 34.3306 15.06 34.3306H26.4638C25.7444 40.0139 20.9101 44.4267 15.06 44.4267Z" fill="#828282"/>
<path fill-rule="evenodd" clip-rule="evenodd" d="M78.5745 42.467L87.3493 47.5273C88.1626 47.9964 88.4417 49.0359 87.9727 49.8493C87.5036 50.6626 86.4641 50.9417 85.6507 50.4727L4.15073 3.47267C3.3374 3.00363 3.0583 1.96406 3.52733 1.15073C3.99637 0.337402 5.03594 0.0582966 5.84927 0.527334L27.9514 13.2734L29.9435 10.7402L27.7983 2.98631C27.6502 2.4481 27.7604 1.8718 28.0958 1.42766C28.4324 0.982338 28.955 0.721572 29.5109 0.721572H36.7879C37.7692 0.721572 38.5656 1.52173 38.5656 2.50764C38.5656 3.49355 37.7692 4.29371 36.7879 4.29371H31.8504L33.1909 9.13753H59.7021L58.3723 3.57214H53.6565C52.6752 3.57214 51.8787 2.77198 51.8787 1.78607C51.8787 0.800159 52.6752 0 53.6565 0H59.7732C60.5945 0 61.3104 0.565589 61.5024 1.36813L65.4324 17.8119C65.9278 17.763 66.4303 17.7357 66.9388 17.7357C75.2433 17.7357 82 24.5263 82 32.8696C82 36.5098 80.714 39.8538 78.5745 42.467ZM35.5466 17.6534L45.2064 23.2241L56.4879 12.7109H34.1793L35.5466 17.6534ZM48.438 25.0877L52.8192 27.6143C54.377 23.4149 57.7459 20.0957 61.9646 18.6049L60.7676 13.5967L48.438 25.0877ZM55.9571 29.4238L75.4336 40.6557C77.3022 38.5999 78.4433 35.8657 78.4433 32.8684C78.4433 26.4945 73.283 21.309 66.9388 21.309C66.773 21.309 66.6098 21.3201 66.4469 21.3311C66.4256 21.3326 66.4044 21.334 66.3832 21.3354C66.3472 21.3379 66.3111 21.3402 66.2751 21.3423L68.6679 31.3538C68.8979 32.3136 68.3088 33.2792 67.3548 33.509C67.2137 33.5412 67.0739 33.5578 66.9376 33.5578C66.134 33.5578 65.4063 33.0089 65.2096 32.1897L62.7978 22.0961C59.5486 23.3617 57.0062 26.0632 55.9571 29.4238ZM31.0684 15.0709L31.1558 15.1213L31.1227 15.0018L31.0684 15.0709Z" fill="#828282"/>
<path d="M66.94 48C58.942 48 52.3809 41.7049 51.9073 33.7871L55.8991 36.1256C57.3021 40.9184 61.7198 44.4267 66.9388 44.4267C67.8385 44.4267 68.7144 44.3224 69.5552 44.1253L73.5482 46.4644C71.5521 47.4476 69.3091 48 66.94 48Z" fill="#828282"/>
</svg>
