<svg width="118" height="69" viewBox="0 0 118 69" fill="none" xmlns="http://www.w3.org/2000/svg">
<path id="Vector" d="M96.3265 25.495C95.5949 25.495 94.8717 25.5344 94.1588 25.6046L88.5034 1.96669C88.2271 0.813034 87.197 0 86.0151 0H77.213C75.8009 0 74.6548 1.15023 74.6548 2.56747C74.6548 3.98472 75.8009 5.13495 77.213 5.13495H83.9992L85.9128 13.1352H47.7625L45.8336 6.17221H52.9387C54.3508 6.17221 55.4969 5.02198 55.4969 3.60473C55.4969 2.18749 54.3508 1.03726 52.9387 1.03726H42.4669C41.667 1.03726 40.9149 1.41211 40.4305 2.05227C39.9479 2.69071 39.7893 3.51915 40.0025 4.29282L43.0894 15.4391L32.7421 28.5828C29.4966 26.6367 25.7189 25.4967 21.6735 25.4967C9.72134 25.495 0 35.2548 0 47.2484C0 59.2419 9.72134 68.9983 21.6718 68.9983C32.9144 68.9983 42.1821 60.3596 43.2395 49.3503H54.4241H54.4293C54.6544 49.3503 54.8829 49.3212 55.1098 49.2578C55.1729 49.2407 55.2291 49.2099 55.2888 49.1877C55.3332 49.1723 55.3741 49.1551 55.4184 49.138C55.6811 49.0268 55.9165 48.8779 56.1194 48.6964C56.1331 48.6844 56.1518 48.6793 56.1655 48.6673L87.446 19.5453L89.1686 26.7445C80.7315 29.7228 74.6565 37.7778 74.6565 47.2501C74.6565 59.2436 84.3778 69 96.3282 69C108.279 69 118 59.2436 118 47.2501C118 35.2565 108.277 25.495 96.3265 25.495ZM44.7864 21.5651L51.0592 44.2136H43.1099C42.4277 39.344 40.1508 34.9861 36.8029 31.7032L44.7864 21.5651ZM33.6085 35.7615C35.7984 38.0534 37.3402 40.9666 37.9405 44.2136H26.9554L33.6085 35.7615ZM21.6718 63.8633C12.5422 63.8633 5.11649 56.4091 5.11649 47.2484C5.11649 38.0876 12.5422 30.6317 21.6718 30.6317C24.5217 30.6317 27.2044 31.3591 29.5495 32.636L19.6644 45.191C19.0572 45.9629 18.9413 47.0156 19.3693 47.9022C19.7957 48.7871 20.6894 49.3503 21.6718 49.3503H38.0821C37.0468 57.52 30.0901 63.8633 21.6718 63.8633ZM55.7647 42.0313L49.1849 18.2719H81.2874L55.7647 42.0313ZM96.3265 63.8633C87.197 63.8633 79.7713 56.4108 79.7713 47.2484C79.7713 40.1964 84.1783 34.1714 90.3675 31.7631L93.8382 46.2727C94.1213 47.4503 95.1685 48.2394 96.3248 48.2394C96.521 48.2394 96.7222 48.2155 96.9252 48.1692C98.2981 47.8389 99.1457 46.4507 98.8148 45.0711L95.3714 30.6796C95.6887 30.6608 96.0042 30.6317 96.3265 30.6317C105.456 30.6317 112.882 38.0859 112.882 47.2484C112.882 56.4108 105.456 63.8633 96.3265 63.8633Z" fill="#265970"/>
</svg>
