<svg width="497" height="343" viewBox="0 0 497 343" fill="none" xmlns="http://www.w3.org/2000/svg">
<path d="M358.284 169.072C351.764 156.135 345.417 143.546 338.751 130.333C337.563 132.073 336.65 133.306 335.853 134.597C311.509 173.815 287.136 213.003 262.937 252.308C260.894 255.629 258.749 256.775 254.866 256.746C233.478 256.543 212.09 256.659 190.702 256.659C189.093 256.659 187.485 256.659 185.615 256.659C181.949 289.756 166.416 315.138 137.406 331.338C115.409 343.623 91.8039 346.088 67.6482 339.272C17.7574 325.189 -10.3687 274.6 3.55664 224.302C17.2067 174.989 73.5893 141.066 130.682 164.75C135.333 157.179 140.043 149.565 144.723 141.921C152.2 129.724 159.634 117.497 167.169 105.343C168.444 103.284 168.691 101.703 167.473 99.3532C162.662 90.0854 158.228 80.6146 153.49 71.2888C153.055 70.433 151.534 69.7514 150.461 69.6644C147.679 69.4178 144.839 69.7514 142.071 69.4613C138.362 69.0842 135.638 65.8644 135.985 62.5576C136.406 58.6997 139.333 57.9455 142.419 57.931C158.938 57.8584 175.458 57.8875 191.977 57.931C195.513 57.931 198.613 58.8737 198.816 63.1377C198.976 66.4591 195.643 69.4323 191.615 69.5483C185.862 69.7079 180.109 69.5918 174.356 69.6209C173.777 69.6209 173.197 69.7514 171.835 69.9254C174.269 74.9002 177.139 79.3963 178.718 84.313C181.399 92.6236 186.354 94.7411 195.005 94.6251C234.825 94.0594 274.66 94.3785 314.48 94.3785C316.218 94.3785 317.943 94.3785 320.508 94.3785C319.551 92.3335 318.928 90.9266 318.233 89.5488C309.756 72.6956 301.25 55.8569 292.773 39.0183C289.469 32.4481 290.309 29.4314 296.395 25.2979C307.727 17.582 319.059 9.85155 330.361 2.09213C335.23 -1.2437 340.302 -0.562025 343.49 3.93409C345.982 7.42945 344.62 12.5057 339.983 15.7545C331.289 21.846 322.478 27.7635 313.712 33.768C312.523 34.5802 311.393 35.4939 309.959 36.5817C313.451 43.5724 316.842 50.4181 320.276 57.2348C337.259 90.9121 354.329 124.56 371.152 158.325C372.905 161.835 374.485 162.067 377.89 161.066C432.302 144.924 488.308 181.052 496.104 237.21C502.972 286.696 469.659 332.528 420.333 341.462C371.253 350.338 323.493 318.125 313.219 269.219C305.278 231.394 321.348 193.046 354.053 171.77C355.285 170.972 356.531 170.203 358.255 169.13L358.284 169.072ZM365.95 184.33C334.665 201.589 316.986 244.331 335.621 282.606C353.879 320.083 398.278 336.371 435.287 319.228C473.73 301.417 490.67 256.833 473.47 218.674C455.472 178.746 411.696 166.78 381.237 177.745C381.701 178.804 382.121 179.877 382.643 180.892C394.38 204.2 406.132 227.507 417.84 250.829C418.623 252.381 419.362 254.078 419.594 255.774C420.101 259.458 417.42 264.274 414.812 264.897C410.813 265.854 405.799 264.317 404.495 261.677C399.307 251.104 394.206 240.488 388.946 229.944C381.382 214.787 373.702 199.689 365.95 184.33ZM121.466 179.834C98.0203 169.043 60.6058 171.61 35.856 199.355C12.4973 225.549 10.1933 264.868 30.3061 293.542C50.4479 322.244 87.7175 333.702 119.727 321.026C146.766 310.323 170.966 278.154 167.836 256.514H74.5892C90.4418 230.596 105.874 205.36 121.48 179.834H121.466ZM191.31 109.419C212.003 151.204 232.289 192.133 252.837 233.627C254.315 231.408 255.315 229.973 256.242 228.479C279.036 191.799 301.829 155.105 324.609 118.411C327.492 113.77 327.231 112.29 322.58 109.941C321.377 109.332 319.74 109.433 318.305 109.433C279.079 109.404 239.853 109.419 200.628 109.419C197.845 109.419 195.049 109.419 191.31 109.419ZM144.781 172.944C155.939 180.704 165.024 190.044 171.98 201.386C178.906 212.67 183.051 224.969 184.949 237.863H237.318C217.35 198.297 197.643 159.282 177.602 119.6C166.329 137.918 155.62 155.337 144.781 172.959V172.944ZM136.029 187.158C125.48 204.301 115.279 220.908 104.773 237.993H168.01C164.213 216.702 153.751 200.066 136.043 187.158H136.029Z" fill="black"/>
</svg>
